<svg width="18" height="20" viewBox="0 0 18 20" fill="none" xmlns="http://www.w3.org/2000/svg">
<g clip-path="url(#clip0)">
<path d="M2.2746 8.4936C2.25874 8.28948 2.25066 8.08319 2.25066 7.875C2.25066 3.52576 5.77641 0 10.1257 0C14.4749 0 18.0007 3.52576 18.0007 7.875C18.0007 12.2242 14.4749 15.75 10.1257 15.75C7.52748 15.75 5.22321 14.4918 3.78888 12.5514L4.39198 12.1056C5.72803 13.913 7.83556 15 10.1257 15C14.0607 15 17.2507 11.81 17.2507 7.875C17.2507 3.93997 14.0607 0.75 10.1257 0.75C6.19063 0.75 3.00066 3.93997 3.00066 7.875C3.00066 8.06682 3.00824 8.2576 3.02327 8.44707L4.23547 7.23484L4.76584 7.76516L2.62566 9.90532L0.485474 7.76516L1.01584 7.23484L2.2746 8.4936ZM10.5007 3.75V8.08161L13.7498 10.9697L13.2515 11.5303L9.75066 8.41839V3.75H10.5007Z" fill="black"/>
</g>
<defs>
<clipPath id="clip0">
<rect width="18" height="19.6875" fill="white"/>
</clipPath>
</defs>
</svg>
