<svg width="148" height="148" viewBox="0 0 148 148" fill="none" xmlns="http://www.w3.org/2000/svg">
<path d="M75.0253 61.4824C55.9136 42.3731 34.9576 32.3451 28.2163 39.0839C27.4766 39.8587 26.9323 40.7985 26.6284 41.8258L26.5199 41.7173L20.082 68.1003L13.6711 94.4045L6.07182 125.551L1.26123 145.277L29.7426 134.499L65.9688 120.792L94.8693 109.857L94.8348 109.823C95.8023 109.514 96.6874 108.991 97.4238 108.291C104.165 101.55 94.137 80.5941 75.0253 61.4824Z" fill="#DD1C4B"/>
<path d="M75.0253 61.4747C55.9143 42.3637 34.9576 32.3354 28.2173 39.0757C21.4769 45.8161 31.5053 66.7727 50.6163 85.8837C69.7272 104.995 90.6839 115.023 97.4242 108.283C104.165 101.542 94.1362 80.5857 75.0253 61.4747Z" fill="#D1E3EE"/>
<path d="M92.2458 110.71C88.795 110.771 85.3714 110.091 82.2054 108.718L58.584 117.656L22.3455 131.351L2.91325 138.703L1.26123 145.477L29.7426 134.699L65.9688 120.992L92.4924 110.957L92.2458 110.71Z" fill="#B21D48"/>
<path d="M122.081 91.2311C121.786 91.2302 121.493 91.1775 121.216 91.0758C108.698 86.3863 95.1672 85.0715 81.9812 87.2638L73.1737 88.7309C71.8256 88.9232 70.5767 87.9863 70.3844 86.6381C70.1985 85.3356 71.068 84.1166 72.36 83.8685L81.17 82.3891C95.2103 80.0562 109.617 81.4552 122.946 86.4452C124.228 86.9057 124.893 88.3179 124.433 89.5994C124.077 90.5894 123.133 91.2447 122.081 91.2311Z" fill="#FFBF41"/>
<path d="M77.6983 76.4369C76.3366 76.4289 75.2391 75.3184 75.2471 73.9567C75.2527 73.0167 75.792 72.1617 76.6381 71.7521L128.418 47.095C129.648 46.5094 131.119 47.0315 131.705 48.2613C132.29 49.4911 131.768 50.9625 130.538 51.5481L78.7586 76.2051C78.427 76.3602 78.0648 76.4394 77.6983 76.4369Z" fill="#FFBF41"/>
<path d="M48.8645 71.5055C48.5393 71.5061 48.2172 71.4417 47.9176 71.3156C46.6607 70.7913 46.0668 69.3477 46.5911 68.0908V68.0905L50.1762 59.4876C55.6923 46.3069 56.9785 31.7383 53.8575 17.795C53.5376 16.4712 54.3516 15.1391 55.675 14.8192C56.9988 14.4993 58.3309 15.3133 58.6508 16.6367C58.6579 16.666 58.6644 16.6953 58.6706 16.7249C62.0141 31.6612 60.6354 47.2673 54.7254 61.3862L51.1378 69.9891C50.755 70.9066 49.8588 71.5045 48.8645 71.5055Z" fill="#FFBF41"/>
<path d="M134.409 101.094C137.133 101.094 139.341 98.886 139.341 96.1625C139.341 93.4389 137.133 91.2311 134.409 91.2311C131.686 91.2311 129.478 93.4389 129.478 96.1625C129.478 98.886 131.686 101.094 134.409 101.094Z" fill="#D5557E"/>
<path d="M75.2327 32.0542C77.9562 32.0542 80.1641 29.8464 80.1641 27.1228C80.1641 24.3993 77.9562 22.1914 75.2327 22.1914C72.5091 22.1914 70.3013 24.3993 70.3013 27.1228C70.3013 29.8464 72.5091 32.0542 75.2327 32.0542Z" fill="#DD95C1"/>
<path d="M53.0413 9.86282C50.3176 9.86282 48.1099 7.65509 48.1099 4.93141C48.1099 2.20773 50.3176 0 53.0413 0C55.765 0 57.9727 2.20773 57.9727 4.93141C57.9727 7.65509 55.765 9.86282 53.0413 9.86282Z" fill="#7FCCCB"/>
<path d="M122.081 19.7256C120.72 19.7256 119.616 18.6216 119.616 17.2599V14.7942C119.616 13.4325 120.72 12.3285 122.081 12.3285C123.443 12.3285 124.547 13.4325 124.547 14.7942V17.2599C124.547 18.6216 123.443 19.7256 122.081 19.7256Z" fill="#2276BB"/>
<path d="M122.081 7.39712C120.72 7.39712 119.616 6.2931 119.616 4.93141V2.46571C119.616 1.10402 120.72 0 122.081 0C123.443 0 124.547 1.10402 124.547 2.46571V4.93141C124.547 6.2931 123.443 7.39712 122.081 7.39712Z" fill="#2276BB"/>
<path d="M129.479 12.3285H127.013C125.651 12.3285 124.547 11.2245 124.547 9.8628C124.547 8.50111 125.651 7.39709 127.013 7.39709H129.479C130.84 7.39709 131.944 8.50111 131.944 9.8628C131.944 11.2245 130.841 12.3285 129.479 12.3285Z" fill="#2276BB"/>
<path d="M117.15 12.3285H114.684C113.323 12.3285 112.219 11.2245 112.219 9.8628C112.219 8.50111 113.323 7.39709 114.684 7.39709H117.15C118.512 7.39709 119.616 8.50111 119.616 9.8628C119.616 11.2245 118.512 12.3285 117.15 12.3285Z" fill="#2276BB"/>
<path d="M20.8343 71.5055C20.5581 70.4501 20.3115 69.385 20.0822 68.3L13.6714 94.6042L14.1645 100.618C15.2393 113.439 20.747 125.486 29.7404 134.687L65.969 120.992C65.7718 120.931 65.5671 120.886 65.3698 120.82C43.4019 112.583 26.7976 94.1964 20.8343 71.5055Z" fill="white"/>
<path d="M65.9689 120.992C65.7716 120.931 65.567 120.886 65.3697 120.82C62.9965 119.921 60.6719 118.898 58.4065 117.755L25.7754 130.101C27.0126 131.705 28.337 133.24 29.7427 134.699L65.9689 120.992Z" fill="#F6F6E7"/>
<path d="M104.821 29.5367V41.9171H92.4409V29.5367H104.821Z" fill="#C9DA53"/>
<path d="M60.4382 73.9712C59.0765 73.9709 57.9728 72.8666 57.9731 71.5049C57.9735 70.8065 58.2696 70.141 58.7887 69.6735L83.4457 47.4821C84.4755 46.5911 86.0326 46.7036 86.9236 47.7333C87.79 48.7344 87.7111 50.2409 86.7449 51.1462L62.0878 73.3375C61.6353 73.7453 61.0476 73.9709 60.4382 73.9712Z" fill="#FFBF41"/>
<path d="M131.943 64.1083C130.582 64.1083 129.478 63.0043 129.478 61.6426V59.1769C129.478 57.8152 130.582 56.7112 131.943 56.7112C133.305 56.7112 134.409 57.8152 134.409 59.1769V61.6426C134.409 63.0043 133.305 64.1083 131.943 64.1083Z" fill="#FFDB43"/>
<path d="M140.662 60.4961C140.008 60.498 139.38 60.2378 138.919 59.7737L137.176 58.0304C136.23 57.0509 136.257 55.4898 137.236 54.5439C138.191 53.6211 139.706 53.6211 140.662 54.5439L142.405 56.2872C143.368 57.2503 143.368 58.8114 142.405 59.7743C141.943 60.2363 141.316 60.4961 140.662 60.4961Z" fill="#FFDB43"/>
<path d="M144.272 51.7798H141.806C140.444 51.7798 139.34 50.6758 139.34 49.3141C139.34 47.9524 140.444 46.8484 141.806 46.8484H144.272C145.633 46.8484 146.737 47.9524 146.737 49.3141C146.737 50.6758 145.634 51.7798 144.272 51.7798Z" fill="#FFDB43"/>
<path d="M138.919 44.8068C137.557 44.8065 136.453 43.7024 136.454 42.3404C136.454 41.6867 136.713 41.0598 137.175 40.5978L138.919 38.8545C139.898 37.9083 141.459 37.9355 142.405 38.915C143.328 39.8704 143.328 41.3853 142.405 42.3411L140.662 44.0843C140.2 44.5466 139.573 44.8068 138.919 44.8068Z" fill="#FFDB43"/>
<path d="M131.943 41.917C130.582 41.917 129.478 40.813 129.478 39.4513V36.9856C129.478 35.6239 130.582 34.5199 131.943 34.5199C133.305 34.5199 134.409 35.6239 134.409 36.9856V39.4513C134.409 40.813 133.305 41.917 131.943 41.917Z" fill="#FFDB43"/>
<path d="M124.968 44.8068C124.314 44.8068 123.687 44.5466 123.225 44.0843L121.481 42.3411C120.535 41.3616 120.562 39.8005 121.542 38.8546C122.497 37.9318 124.012 37.9318 124.968 38.8546L126.711 40.5978C127.674 41.561 127.674 43.1221 126.71 44.0849C126.248 44.547 125.621 44.8068 124.968 44.8068Z" fill="#FFDB43"/>
<path d="M13.5898 2.4657L17.3993 10.1858L25.9183 11.4236L19.754 17.4325L21.2088 25.917L13.5898 21.9103L5.97073 25.917L7.4255 17.4325L1.26123 11.4236L9.78024 10.1858L13.5898 2.4657Z" fill="#FFDB43"/>
<path d="M145.959 133.557C144.786 129.401 142.086 125.842 138.399 123.594L137.384 122.07C131.687 113.552 122.73 107.76 112.625 106.06C111.277 105.868 110.028 106.805 109.836 108.153C109.65 109.455 110.52 110.674 111.812 110.922C119.1 112.159 125.743 115.862 130.627 121.411C126.521 122.15 122.929 124.617 120.765 128.185C118.109 132.941 119.812 138.949 124.568 141.604C129.324 144.26 135.332 142.557 137.988 137.801C139.002 135.843 139.55 133.676 139.588 131.472C142.211 135.282 142.421 140.258 140.128 144.276C139.433 145.447 139.819 146.96 140.991 147.655C142.162 148.349 143.674 147.963 144.369 146.792C144.391 146.754 144.413 146.716 144.433 146.678C146.673 142.683 147.223 137.959 145.959 133.557ZM133.687 135.394C132.371 137.779 129.372 138.645 126.987 137.329C124.603 136.013 123.736 133.013 125.053 130.629C125.06 130.616 125.067 130.602 125.075 130.589C126.53 128.206 128.984 126.609 131.752 126.244C132.181 126.232 132.605 126.331 132.985 126.53C135.066 127.692 135.177 132.727 133.687 135.394Z" fill="#2BB3CE"/>
</svg>
