<svg width="72" height="72" viewBox="0 0 72 72" fill="none" xmlns="http://www.w3.org/2000/svg">
<g clip-path="url(#clip0)">
<path d="M64.8 69.6H61.2V64.8H55.2V52.5336C55.2 49.2936 53.5896 46.284 50.8932 44.4864L38.1636 36L50.8932 27.5136C53.5896 25.716 55.2 22.7064 55.2 19.4664V7.2H61.2V2.4H64.8C65.4624 2.4 66 1.8636 66 1.2C66 0.5364 65.4624 0 64.8 0H61.2H60H12H10.8H7.2C6.5376 0 6 0.5364 6 1.2C6 1.8636 6.5376 2.4 7.2 2.4H10.8V7.2H16.8V19.4664C16.8 22.7064 18.4104 25.716 21.1068 27.5136L33.8364 36L21.1068 44.4864C18.4104 46.284 16.8 49.2936 16.8 52.5336V64.8H10.8V69.6H7.2C6.5376 69.6 6 70.1364 6 70.8C6 71.4636 6.5376 72 7.2 72H10.8H12H60H61.2H64.8C65.4624 72 66 71.4636 66 70.8C66 70.1364 65.4624 69.6 64.8 69.6ZM22.4376 25.5168C20.4108 24.1644 19.2 21.9024 19.2 19.4664V7.2H52.8V19.4664C52.8 21.9024 51.5892 24.1644 49.5624 25.5168L36 34.5576L22.4376 25.5168ZM19.2 52.5336C19.2 50.0976 20.4108 47.8356 22.4376 46.4832L36 37.4424L49.5624 46.4832C51.5892 47.8356 52.8 50.0976 52.8 52.5336V64.8H19.2V52.5336Z" fill="#2B3C4E"/>
<path d="M25.1004 21.5232C24.4116 21.0636 24 20.2944 24 19.4664V16.8C24 16.1364 23.4624 15.6 22.8 15.6C22.1376 15.6 21.6 16.1364 21.6 16.8V19.4664C21.6 21.0996 22.4112 22.6152 23.7696 23.52L29.3352 27.2304C29.5392 27.366 29.7708 27.432 30 27.432C30.3876 27.432 30.768 27.2448 30.9996 26.898C31.3668 26.346 31.218 25.602 30.6672 25.2336L25.1004 21.5232Z" fill="#2B3C4E"/>
<path d="M48.2303 49.5121L42.6647 45.8017C42.1127 45.4333 41.3687 45.5821 41.0003 46.1341C40.6331 46.6861 40.7819 47.4301 41.3327 47.7985L46.8983 51.5089C47.5883 51.9685 47.9999 52.7365 47.9999 53.5657V56.2321C47.9999 56.8957 48.5375 57.4321 49.1999 57.4321C49.8623 57.4321 50.3999 56.8957 50.3999 56.2321V53.5657C50.3999 51.9313 49.5887 50.4169 48.2303 49.5121Z" fill="#2B3C4E"/>
</g>
<defs>
<clipPath id="clip0">
<rect width="72" height="72" fill="white"/>
</clipPath>
</defs>
</svg>
