<svg width="15" height="14" viewBox="0 0 15 14" fill="none" xmlns="http://www.w3.org/2000/svg">
<path d="M7.98343 8.7738e-05C8.13587 -0.00015831 8.2875 0.0224724 8.43323 0.0672226L12.5754 1.30921C13.0075 1.45504 13.3849 1.72916 13.6572 2.09501C13.9295 2.46085 14.0837 2.90102 14.0994 3.3568L14.0994 10.0702C14.0771 10.5202 13.9197 10.953 13.6479 11.3122C13.3761 11.6715 13.0024 11.9405 12.5754 12.0843L8.43323 13.3598C8.23234 13.4283 8.01809 13.4482 7.80803 13.4178C7.59797 13.3875 7.3981 13.3078 7.22481 13.1853C7.0593 13.0547 6.92686 12.887 6.83822 12.6957C6.74958 12.5044 6.70723 12.295 6.71459 12.0843L6.71459 9.3989C6.71459 9.30987 6.74995 9.22449 6.8129 9.16154C6.87585 9.09859 6.96123 9.06322 7.05026 9.06322C7.13929 9.06322 7.22467 9.09859 7.28762 9.16154C7.35057 9.22449 7.38593 9.30987 7.38593 9.3989L7.38593 12.0843C7.3785 12.1907 7.39655 12.2974 7.43858 12.3955C7.48061 12.4935 7.54542 12.5802 7.62761 12.6482C7.71618 12.7083 7.81784 12.7464 7.92412 12.7592C8.03039 12.7721 8.1382 12.7593 8.23854 12.722L12.3807 11.4801C12.6744 11.3738 12.9303 11.1834 13.1165 10.9327C13.3027 10.682 13.4111 10.3821 13.428 10.0702L13.428 3.3568C13.4111 3.04496 13.3027 2.745 13.1165 2.49431C12.9303 2.24361 12.6744 2.05326 12.3807 1.94698L8.23854 0.704998C8.13933 0.663417 8.03098 0.648469 7.92421 0.661633C7.81745 0.674797 7.71598 0.715616 7.62984 0.780051C7.5437 0.844485 7.47588 0.9303 7.4331 1.029C7.39032 1.1277 7.37406 1.23586 7.38593 1.34277L7.38593 4.02815C7.38593 4.11717 7.35057 4.20255 7.28762 4.2655C7.22467 4.32845 7.13929 4.36382 7.05026 4.36382C6.96123 4.36382 6.87585 4.32845 6.8129 4.2655C6.74995 4.20255 6.71459 4.11717 6.71459 4.02815L6.71459 1.34277C6.70723 1.13208 6.74958 0.922623 6.83822 0.731345C6.92686 0.540068 7.0593 0.372351 7.22481 0.241772C7.44498 0.0814714 7.7111 -0.0033102 7.98343 8.7738e-05Z" fill="#2B3C4E"/>
<path d="M1.67967 4.36379C1.74593 4.36512 1.8107 4.38363 1.86765 4.4175C1.94169 4.46796 1.993 4.54543 2.01057 4.63329C2.02814 4.72114 2.01058 4.81239 1.96164 4.88744L0.739794 6.7135L1.96164 8.53955C2.01149 8.61433 2.0296 8.70585 2.01197 8.79399C1.99435 8.88212 1.94243 8.95964 1.86765 9.00949C1.79287 9.05934 1.70135 9.07745 1.61322 9.05982C1.52508 9.0422 1.44756 8.99028 1.39771 8.9155L0.0550237 6.90147C0.0191534 6.84534 9.34601e-05 6.78011 9.34601e-05 6.7135C9.34601e-05 6.64688 0.0191534 6.58165 0.0550237 6.52552L1.39771 4.51149C1.42964 4.46628 1.47186 4.42932 1.52088 4.40364C1.56991 4.37796 1.62433 4.3643 1.67967 4.36379Z" fill="#2B3C4E"/>
<path d="M0.33674 6.37785L12.4209 6.37785C12.5099 6.37785 12.5953 6.41322 12.6583 6.47617C12.7212 6.53912 12.7566 6.6245 12.7566 6.71352C12.7566 6.80255 12.7212 6.88793 12.6583 6.95088C12.5953 7.01383 12.5099 7.04919 12.4209 7.04919L0.33674 7.04919C0.247713 7.04919 0.162333 7.01383 0.0993834 6.95088C0.0364323 6.88793 0.00106716 6.80255 0.00106716 6.71352C0.00106716 6.6245 0.0364323 6.53912 0.0993834 6.47617C0.162333 6.41322 0.247713 6.37785 0.33674 6.37785Z" fill="#2B3C4E"/>
</svg>
